<?xml version="1.0" encoding="utf-8"?>
<!-- Generator: Adobe Illustrator 25.0.1, SVG Export Plug-In . SVG Version: 6.00 Build 0)  -->
<svg version="1.1" id="图层_1" xmlns="http://www.w3.org/2000/svg" xmlns:xlink="http://www.w3.org/1999/xlink" x="0px" y="0px"
	 viewBox="0 0 36 36" style="enable-background:new 0 0 36 36;" xml:space="preserve">
<style type="text/css">
	.st0{fill:#2755A5;}
	.st1{fill:#FFFFFF;}
</style>
<path class="st0" d="M9.7,28.7c-1.3,0-2.4-1.1-2.4-2.4V9.7c0-1.3,1.1-2.4,2.4-2.4h16.6c1.3,0,2.4,1.1,2.4,2.4v16.7
	c0,1.3-1.1,2.4-2.4,2.4H9.7z"/>
<path class="st1" d="M22.7,25.1l3.5-4.2h-2.3v-4.7c0-3.2-2.6-5.9-5.9-5.9c-0.8,0-1.6,0.2-2.3,0.5l1.6,1.9c0.2,0,0.5-0.1,0.7-0.1
	c1.9,0,3.5,1.6,3.5,3.5v4.7h-2.3L22.7,25.1z M20.3,25.1l-1.6-1.9c-0.2,0-0.5,0.1-0.7,0.1c-1.9,0-3.5-1.6-3.5-3.5v-4.7h2.3l-3.5-4.2
	l-3.5,4.2h2.3v4.7c0,3.2,2.6,5.9,5.9,5.9C18.8,25.6,19.6,25.4,20.3,25.1z"/>
</svg>
