<?xml version="1.0" encoding="utf-8"?>
<!-- Generator: Adobe Illustrator 25.0.1, SVG Export Plug-In . SVG Version: 6.00 Build 0)  -->
<svg version="1.1" id="图层_1" xmlns="http://www.w3.org/2000/svg" xmlns:xlink="http://www.w3.org/1999/xlink" x="0px" y="0px"
	 viewBox="0 0 36 36" style="enable-background:new 0 0 36 36;" xml:space="preserve">
<style type="text/css">
	.st0{fill:#F4900C;}
	.st1{fill:#FFFFFF;}
</style>
<path class="st0" d="M28.3,26c0,1.3-1,2.3-2.3,2.3H10c-1.3,0-2.3-1-2.3-2.3V10c0-1.3,1-2.3,2.3-2.3h16c1.3,0,2.3,1,2.3,2.3V26z"/>
<path class="st1" d="M20.1,20.1l1.4,1.4c-1.9,1.9-5,1.9-6.9,0c-1.1-1.1-1.6-2.6-1.4-4l-2,0.2c-0.1,1.9,0.6,3.8,2,5.2
	c2.7,2.7,7,2.7,9.7,0l1.4,1.4l0.4-4.6L20.1,20.1z M22.8,13.2c-2.7-2.7-7-2.7-9.7,0l-1.4-1.4l-0.4,4.6l4.6-0.4l-1.4-1.4
	c1.9-1.9,5-1.9,6.9,0c1.1,1.1,1.6,2.6,1.4,4l2-0.2C24.9,16.5,24.3,14.6,22.8,13.2z"/>
</svg>
